<?xml version="1.0" encoding="UTF-8" standalone="no"?><svg xmlns="http://www.w3.org/2000/svg" xmlns:xlink="http://www.w3.org/1999/xlink" contentScriptType="application/ecmascript" contentStyleType="text/css" height="608px" preserveAspectRatio="none" style="width:998px;height:608px;background:#FFFFFF;" version="1.1" viewBox="0 0 998 608" width="998px" zoomAndPan="magnify"><defs><filter height="300%" id="fqcaoarpsdfrb" width="300%" x="-1" y="-1"><feGaussianBlur result="blurOut" stdDeviation="2.0"/><feColorMatrix in="blurOut" result="blurOut2" type="matrix" values="0 0 0 0 0 0 0 0 0 0 0 0 0 0 0 0 0 0 .4 0"/><feOffset dx="4.0" dy="4.0" in="blurOut2" result="blurOut3"/><feBlend in="SourceGraphic" in2="blurOut3" mode="normal"/></filter></defs><g><!--MD5=[e98ebe3490bbb2ea6f5530794af2bc99]
cluster src_b874d07--><polygon fill="#FFFFFF" filter="url(#fqcaoarpsdfrb)" points="96.5,70,125.5,70,132.5,92.2969,772.5,92.2969,772.5,601,96.5,601,96.5,70" style="stroke:#000000;stroke-width:1.5;"/><line style="stroke:#000000;stroke-width:1.5;" x1="96.5" x2="132.5" y1="92.2969" y2="92.2969"/><text fill="#000000" font-family="sans-serif" font-size="14" font-weight="bold" lengthAdjust="spacing" textLength="23" x="100.5" y="84.9951">src</text><rect fill="#FEFECE" filter="url(#fqcaoarpsdfrb)" height="33.9688" style="stroke:#A80036;stroke-width:1.5;" width="146" x="233.5" y="169.5"/><text fill="#000000" font-family="sans-serif" font-size="12" lengthAdjust="spacing" textLength="132" x="240.5" y="182.6387">_defaultNameSpaceId</text><line style="stroke:#A80036;stroke-width:1.5;" x1="234.5" x2="378.5" y1="187.4688" y2="187.4688"/><!--MD5=[a3a8068e0ed714193e37a44d9e131d5e]
class node_session_dao_407f9775--><rect codeLine="21" fill="#FEFECE" filter="url(#fqcaoarpsdfrb)" height="163.4059" id="node_session_dao_407f9775" style="stroke:#A80036;stroke-width:1.5;" width="341" x="415" y="105"/><ellipse cx="531.75" cy="121" fill="#ADD1B2" rx="11" ry="11" style="stroke:#A80036;stroke-width:1.0;"/><path d="M534.2344,126.875 Q533.6563,127.1875 533.0156,127.3438 Q532.375,127.5 531.6719,127.5 Q529.1563,127.5 527.8281,125.8281 Q526.5156,124.1563 526.5156,121 Q526.5156,117.8438 527.8281,116.1719 Q529.1563,114.5 531.6719,114.5 Q532.375,114.5 533.0156,114.6563 Q533.6719,114.8125 534.2344,115.125 L534.2344,117.9219 Q533.5938,117.3438 533,117.0781 Q532.4063,116.8125 531.7813,116.8125 Q530.4375,116.8125 529.75,117.875 Q529.0625,118.9219 529.0625,121 Q529.0625,123.0781 529.75,124.1406 Q530.4375,125.1875 531.7813,125.1875 Q532.4063,125.1875 533,124.9219 Q533.5938,124.6563 534.2344,124.0781 L534.2344,126.875 Z " fill="#000000"/><text fill="#000000" font-family="sans-serif" font-size="12" lengthAdjust="spacing" textLength="99" x="552.25" y="125.1543">NodeSessionDao</text><line style="stroke:#A80036;stroke-width:1.5;" x1="416" x2="755" y1="137" y2="137"/><ellipse cx="426" cy="148" rx="3" ry="3" style="stroke:#038048;stroke-width:1.0;fill:none;"/><text fill="#000000" font-family="sans-serif" font-size="11" lengthAdjust="spacing" textLength="89" x="435" y="151.225">NS: Namespace</text><polygon fill="none" points="426,155.8229,430,159.8229,426,163.8229,422,159.8229" style="stroke:#B38D22;stroke-width:1.0;"/><text fill="#000000" font-family="sans-serif" font-size="11" lengthAdjust="spacing" textLength="93" x="435" y="164.0478">_ns: Namespace</text><polygon fill="none" points="426,168.6458,430,172.6458,426,176.6458,422,172.6458" style="stroke:#B38D22;stroke-width:1.0;"/><text fill="#000000" font-family="sans-serif" font-size="11" lengthAdjust="spacing" textLength="194" x="435" y="176.8707">_throwErrorIfInactiveContext: void</text><line style="stroke:#A80036;stroke-width:1.5;" x1="416" x2="755" y1="183.4686" y2="183.4686"/><ellipse cx="426" cy="194.4686" fill="#84BE84" rx="3" ry="3" style="stroke:#038048;stroke-width:1.0;"/><text fill="#000000" font-family="sans-serif" font-size="11" lengthAdjust="spacing" textLength="128" x="435" y="197.6936">clear(key: string): void</text><text fill="#000000" font-family="sans-serif" font-size="11" lengthAdjust="spacing" textLength="298" x="435" y="210.5165">constructor(params: { nameSpaceId?: string } = {})</text><ellipse cx="426" cy="220.1144" fill="#84BE84" rx="3" ry="3" style="stroke:#038048;stroke-width:1.0;"/><text fill="#000000" font-family="sans-serif" font-size="11" lengthAdjust="spacing" textLength="315" x="435" y="223.3393">createAsync(callback: () =&gt; Promise&lt;T&gt;): Promise&lt;T&gt;</text><ellipse cx="426" cy="232.9373" fill="#84BE84" rx="3" ry="3" style="stroke:#038048;stroke-width:1.0;"/><text fill="#000000" font-family="sans-serif" font-size="11" lengthAdjust="spacing" textLength="169" x="435" y="236.1622">get(key: string): T | undefined</text><ellipse cx="426" cy="245.7601" fill="#84BE84" rx="3" ry="3" style="stroke:#038048;stroke-width:1.0;"/><text fill="#000000" font-family="sans-serif" font-size="11" lengthAdjust="spacing" textLength="85" x="435" y="248.9851">set(key: string,</text><text fill="#000000" font-family="sans-serif" font-size="11" lengthAdjust="spacing" textLength="82" x="439" y="261.808">value: T): void</text><!--MD5=[edb80642149639f5deec06debb645aa8]
class node_session_util_cf9cb43b--><rect codeLine="31" fill="#FEFECE" filter="url(#fqcaoarpsdfrb)" height="163.4059" id="node_session_util_cf9cb43b" style="stroke:#A80036;stroke-width:1.5;" width="392" x="364.5" y="328"/><ellipse cx="508.25" cy="344" fill="#ADD1B2" rx="11" ry="11" style="stroke:#A80036;stroke-width:1.0;"/><path d="M510.7344,349.875 Q510.1563,350.1875 509.5156,350.3438 Q508.875,350.5 508.1719,350.5 Q505.6563,350.5 504.3281,348.8281 Q503.0156,347.1563 503.0156,344 Q503.0156,340.8438 504.3281,339.1719 Q505.6563,337.5 508.1719,337.5 Q508.875,337.5 509.5156,337.6563 Q510.1719,337.8125 510.7344,338.125 L510.7344,340.9219 Q510.0938,340.3438 509.5,340.0781 Q508.9063,339.8125 508.2813,339.8125 Q506.9375,339.8125 506.25,340.875 Q505.5625,341.9219 505.5625,344 Q505.5625,346.0781 506.25,347.1406 Q506.9375,348.1875 508.2813,348.1875 Q508.9063,348.1875 509.5,347.9219 Q510.0938,347.6563 510.7344,347.0781 L510.7344,349.875 Z " fill="#000000"/><text fill="#000000" font-family="sans-serif" font-size="12" lengthAdjust="spacing" textLength="96" x="528.75" y="348.1543">NodeSessionUtil</text><line style="stroke:#A80036;stroke-width:1.5;" x1="365.5" x2="755.5" y1="360" y2="360"/><polygon fill="none" points="375.5,366,379.5,370,375.5,374,371.5,370" style="stroke:#B38D22;stroke-width:1.0;"/><text fill="#000000" font-family="sans-serif" font-size="11" lengthAdjust="spacing" textLength="129" x="384.5" y="374.225">_dao: NodeSessionDao</text><line style="stroke:#A80036;stroke-width:1.5;" x1="365.5" x2="755.5" y1="380.8229" y2="380.8229"/><text fill="#000000" font-family="sans-serif" font-size="11" lengthAdjust="spacing" textLength="366" x="384.5" y="395.0478">constructor(props: { nodeSessionDao?: NodeSessionDao } = {})</text><ellipse cx="375.5" cy="404.6458" fill="#84BE84" rx="3" ry="3" style="stroke:#038048;stroke-width:1.0;"/><text fill="#000000" font-family="sans-serif" font-size="11" lengthAdjust="spacing" textLength="230" x="384.5" y="407.8707">createSession(callback: () =&gt; void): void</text><ellipse cx="375.5" cy="417.4686" fill="#84BE84" rx="3" ry="3" style="stroke:#038048;stroke-width:1.0;"/><text fill="#000000" font-family="sans-serif" font-size="11" lengthAdjust="spacing" textLength="197" x="384.5" y="420.6936">expressMiddleware(_req: Request,</text><text fill="#000000" font-family="sans-serif" font-size="11" lengthAdjust="spacing" textLength="91" x="388.5" y="433.5165">_res: Response,</text><text fill="#000000" font-family="sans-serif" font-size="11" lengthAdjust="spacing" textLength="142" x="388.5" y="446.3393">next: NextFunction): void</text><ellipse cx="375.5" cy="455.9373" fill="#84BE84" rx="3" ry="3" style="stroke:#038048;stroke-width:1.0;"/><text fill="#000000" font-family="sans-serif" font-size="11" lengthAdjust="spacing" textLength="257" x="384.5" y="459.1622">expressMiddlewareBindEmitter(req: Request,</text><text fill="#000000" font-family="sans-serif" font-size="11" lengthAdjust="spacing" textLength="85" x="388.5" y="471.9851">res: Response,</text><text fill="#000000" font-family="sans-serif" font-size="11" lengthAdjust="spacing" textLength="142" x="388.5" y="484.808">next: NextFunction): void</text><rect fill="#FEFECE" filter="url(#fqcaoarpsdfrb)" height="33.9688" style="stroke:#A80036;stroke-width:1.5;" width="154" x="367.5" y="551"/><text fill="#000000" font-family="sans-serif" font-size="12" lengthAdjust="spacing" textLength="140" x="374.5" y="564.1387">nodeSessionUtilFactory</text><line style="stroke:#A80036;stroke-width:1.5;" x1="368.5" x2="520.5" y1="568.9688" y2="568.9688"/><!--MD5=[50b127a3bf5fac32df1442fa3fc0796f]
entity index_ts_e4daf83f--><rect fill="#FFFFFF" filter="url(#fqcaoarpsdfrb)" height="39.2969" style="stroke:#000000;stroke-width:1.5;" width="85" x="113" y="167"/><polygon fill="#FFFFFF" points="181,172,181,186,193,186,193,178,187,172,181,172" style="stroke:#000000;stroke-width:1.5;"/><line style="stroke:#000000;stroke-width:1.5;" x1="187" x2="187" y1="172" y2="178"/><line style="stroke:#000000;stroke-width:1.5;" x1="193" x2="187" y1="178" y2="178"/><text fill="#000000" font-family="sans-serif" font-size="14" lengthAdjust="spacing" textLength="55" x="123" y="192.9951">index.ts</text><rect fill="#FEFECE" filter="url(#fqcaoarpsdfrb)" height="37.6094" style="stroke:#A80036;stroke-width:1.5;" width="84" x="612.5" y="7"/><text fill="#000000" font-family="sans-serif" font-size="12" lengthAdjust="spacing" textLength="70" x="619.5" y="20.1387">Namespace</text><line style="stroke:#A80036;stroke-width:1.5;" x1="613.5" x2="695.5" y1="24.9688" y2="24.9688"/><text fill="#000000" font-family="sans-serif" font-size="10" lengthAdjust="spacing" textLength="66" x="618.5" y="38.251">cls-hooked.ts</text><rect fill="#FEFECE" filter="url(#fqcaoarpsdfrb)" height="37.6094" style="stroke:#A80036;stroke-width:1.5;" width="122" x="455.5" y="7"/><text fill="#000000" font-family="sans-serif" font-size="12" lengthAdjust="spacing" textLength="108" x="462.5" y="20.1387">createNamespace</text><line style="stroke:#A80036;stroke-width:1.5;" x1="456.5" x2="576.5" y1="24.9688" y2="24.9688"/><text fill="#000000" font-family="sans-serif" font-size="10" lengthAdjust="spacing" textLength="66" x="461.5" y="38.251">cls-hooked.ts</text><rect fill="#FEFECE" filter="url(#fqcaoarpsdfrb)" height="37.6094" style="stroke:#A80036;stroke-width:1.5;" width="95" x="889" y="167.5"/><text fill="#000000" font-family="sans-serif" font-size="12" lengthAdjust="spacing" textLength="81" x="896" y="180.6387">NextFunction</text><line style="stroke:#A80036;stroke-width:1.5;" x1="890" x2="983" y1="185.4688" y2="185.4688"/><text fill="#000000" font-family="sans-serif" font-size="10" lengthAdjust="spacing" textLength="50" x="895" y="198.751">express.ts</text><rect fill="#FEFECE" filter="url(#fqcaoarpsdfrb)" height="37.6094" style="stroke:#A80036;stroke-width:1.5;" width="63" x="791" y="167.5"/><text fill="#000000" font-family="sans-serif" font-size="12" lengthAdjust="spacing" textLength="49" x="798" y="180.6387">Request</text><line style="stroke:#A80036;stroke-width:1.5;" x1="792" x2="853" y1="185.4688" y2="185.4688"/><text fill="#000000" font-family="sans-serif" font-size="10" lengthAdjust="spacing" textLength="50" x="797" y="198.751">express.ts</text><rect fill="#FEFECE" filter="url(#fqcaoarpsdfrb)" height="37.6094" style="stroke:#A80036;stroke-width:1.5;" width="71" x="7" y="167.5"/><text fill="#000000" font-family="sans-serif" font-size="12" lengthAdjust="spacing" textLength="57" x="14" y="180.6387">Response</text><line style="stroke:#A80036;stroke-width:1.5;" x1="8" x2="77" y1="185.4688" y2="185.4688"/><text fill="#000000" font-family="sans-serif" font-size="10" lengthAdjust="spacing" textLength="50" x="13" y="198.751">express.ts</text><!--MD5=[b727add7080fdba33cdb4fef483919b8]
reverse link namespace_6f0870ff to node_session_dao_407f9775--><path codeLine="41" d="M644.5,49.96 C638.1,64.68 629.36,84.76 620.57,104.94 " fill="none" id="namespace_6f0870ff-backto-node_session_dao_407f9775" style="stroke:#A80036;stroke-width:1.0;"/><polygon fill="#A80036" points="646.58,45.18,639.3331,51.8495,644.5932,49.7683,646.6743,55.0284,646.58,45.18" style="stroke:#A80036;stroke-width:1.0;"/><!--MD5=[a94df70a3014ab17a6f2e667fe6a6f5e]
reverse link create_namespace_6f0870ff to node_session_dao_407f9775--><path codeLine="42" d="M526.5,49.96 C532.9,64.68 541.64,84.76 550.43,104.94 " fill="none" id="create_namespace_6f0870ff-backto-node_session_dao_407f9775" style="stroke:#A80036;stroke-width:1.0;"/><polygon fill="#A80036" points="524.42,45.18,524.3257,55.0284,526.4068,49.7683,531.6669,51.8495,524.42,45.18" style="stroke:#A80036;stroke-width:1.0;"/><!--MD5=[02d8b4ea2c7eb8b5838b5419468275bb]
reverse link node_session_dao_407f9775 to node_session_util_cf9cb43b--><path codeLine="43" d="M575.8,273.27 C573.76,291.27 571.62,310.2 569.61,327.99 " fill="none" id="node_session_dao_407f9775-backto-node_session_util_cf9cb43b" style="stroke:#A80036;stroke-width:1.0;"/><polygon fill="#A80036" points="576.37,268.22,571.3925,276.7185,575.8131,273.1889,579.3428,277.6095,576.37,268.22" style="stroke:#A80036;stroke-width:1.0;"/><!--MD5=[e9a5fbf17d5c2c6d216810f5bb45f6bc]
reverse link next_function_624f3316 to node_session_util_cf9cb43b--><path codeLine="44" d="M922.67,209.89 C910.85,227.54 892.46,251.8 871.5,268 C837.04,294.63 796.74,317.55 756.78,336.69 " fill="none" id="next_function_624f3316-backto-node_session_util_cf9cb43b" style="stroke:#A80036;stroke-width:1.0;"/><polygon fill="#A80036" points="925.53,205.56,917.2431,210.8824,922.783,209.7378,923.9276,215.2776,925.53,205.56" style="stroke:#A80036;stroke-width:1.0;"/><!--MD5=[8dfbd50f3a48dade3c2094e995d28a87]
reverse link request_624f3316 to node_session_util_cf9cb43b--><path codeLine="45" d="M811.72,210.33 C802.84,227.52 789.05,250.95 772.5,268 C751.35,289.78 726.28,309.99 700.9,327.91 " fill="none" id="request_624f3316-backto-node_session_util_cf9cb43b" style="stroke:#A80036;stroke-width:1.0;"/><polygon fill="#A80036" points="814.09,205.66,806.4554,211.882,811.8311,210.1206,813.5925,215.4963,814.09,205.66" style="stroke:#A80036;stroke-width:1.0;"/><!--MD5=[212ccec4915188e9bb5626799b28aca4]
reverse link response_624f3316 to node_session_util_cf9cb43b--><path codeLine="46" d="M52.52,210.45 C61.54,228.57 76.47,253.18 96.5,268 C174.4,325.63 276.07,359.84 364.38,380.04 " fill="none" id="response_624f3316-backto-node_session_util_cf9cb43b" style="stroke:#A80036;stroke-width:1.0;"/><polygon fill="#A80036" points="50.13,205.53,50.4388,215.374,52.3029,210.0331,57.6438,211.8973,50.13,205.53" style="stroke:#A80036;stroke-width:1.0;"/><!--MD5=[166a437c20fda07348cbcee1c69445a6]
reverse link node_session_dao_407f9775 to node_session_util_factory_cf9cb43b--><path codeLine="47" d="M410.75,260.78 C385.43,279 362.8,301.2 347.5,328 C311.58,390.91 315.79,425.87 347.5,491 C360.61,517.93 388.39,538.13 410.88,550.92 " fill="none" id="node_session_dao_407f9775-backto-node_session_util_factory_cf9cb43b" style="stroke:#A80036;stroke-width:1.0;"/><polygon fill="#A80036" points="414.83,257.89,405.1711,259.8149,410.746,260.7745,409.7863,266.3494,414.83,257.89" style="stroke:#A80036;stroke-width:1.0;"/><!--MD5=[9b576ad48307ab0ce354b389d4bef5e9]
reverse link node_session_util_cf9cb43b to node_session_util_factory_cf9cb43b--><path codeLine="48" d="M497.64,495.31 C481.86,516.59 466.57,537.23 456.47,550.85 " fill="none" id="node_session_util_cf9cb43b-backto-node_session_util_factory_cf9cb43b" style="stroke:#A80036;stroke-width:1.0;"/><polygon fill="#A80036" points="500.8,491.04,492.2304,495.894,497.8252,495.0588,498.6605,500.6537,500.8,491.04" style="stroke:#A80036;stroke-width:1.0;"/><!--MD5=[10ba97bf089ce699951c9eefcb2ea41e]
@startuml
    object "Namespace" as namespace_6f0870ff {
      cls-hooked.ts
    }
    object "createNamespace" as create_namespace_6f0870ff {
      cls-hooked.ts
    }
    object "NextFunction" as next_function_624f3316 {
      express.ts
    }
    object "Request" as request_624f3316 {
      express.ts
    }
    object "Response" as response_624f3316 {
      express.ts
    }
    folder "src" as src_b874d07 {
      artifact "index.ts" as index_ts_e4daf83f {
      }
      object "_defaultNameSpaceId" as default_name_space_id_407f9775 {
      }
      class "NodeSessionDao" as node_session_dao_407f9775 {
        + NS: Namespace
        # _ns: Namespace
        # _throwErrorIfInactiveContext: void
        + clear(key: string): void
        constructor(params: { nameSpaceId?: string } = {})
        + createAsync(callback: () => Promise<T>): Promise<T>
        + get(key: string): T | undefined
        + set(key: string,\n value: T): void
      }
      class "NodeSessionUtil" as node_session_util_cf9cb43b {
        # _dao: NodeSessionDao
        constructor(props: { nodeSessionDao?: NodeSessionDao } = {})
        + createSession(callback: () => void): void
        + expressMiddleware(_req: Request,\n _res: Response,\n next: NextFunction): void
        + expressMiddlewareBindEmitter(req: Request,\n res: Response,\n next: NextFunction): void
      }
      object "nodeSessionUtilFactory" as node_session_util_factory_cf9cb43b {
      }
    }
  node_session_dao_407f9775 -up-> namespace_6f0870ff
  node_session_dao_407f9775 -up-> create_namespace_6f0870ff
  node_session_util_cf9cb43b -up-> node_session_dao_407f9775
  node_session_util_cf9cb43b -up-> next_function_624f3316
  node_session_util_cf9cb43b -up-> request_624f3316
  node_session_util_cf9cb43b -up-> response_624f3316
  node_session_util_factory_cf9cb43b -up-> node_session_dao_407f9775
  node_session_util_factory_cf9cb43b -up-> node_session_util_cf9cb43b
@enduml

PlantUML version 1.2021.11(Sat Oct 02 15:26:11 CEST 2021)
(GPL source distribution)
Java Runtime: OpenJDK Runtime Environment
JVM: OpenJDK 64-Bit Server VM
Default Encoding: UTF-8
Language: en
Country: US
--></g></svg>