<?xml version="1.0" encoding="UTF-8" standalone="no"?><svg xmlns="http://www.w3.org/2000/svg" xmlns:xlink="http://www.w3.org/1999/xlink" contentScriptType="application/ecmascript" contentStyleType="text/css" height="812px" preserveAspectRatio="none" style="width:1248px;height:812px;background:#FFFFFF;" version="1.1" viewBox="0 0 1248 812" width="1248px" zoomAndPan="magnify"><defs><filter height="300%" id="f1dzsy1w7uiyd7" width="300%" x="-1" y="-1"><feGaussianBlur result="blurOut" stdDeviation="2.0"/><feColorMatrix in="blurOut" result="blurOut2" type="matrix" values="0 0 0 0 0 0 0 0 0 0 0 0 0 0 0 0 0 0 .4 0"/><feOffset dx="4.0" dy="4.0" in="blurOut2" result="blurOut3"/><feBlend in="SourceGraphic" in2="blurOut3" mode="normal"/></filter></defs><g><!--MD5=[e98ebe3490bbb2ea6f5530794af2bc99]
cluster src_b874d07--><polygon fill="#FFFFFF" filter="url(#f1dzsy1w7uiyd7)" points="16.16,6,45.16,6,52.16,28.2969,1231.16,28.2969,1231.16,805,16.16,805,16.16,6" style="stroke:#000000;stroke-width:1.5;"/><line style="stroke:#000000;stroke-width:1.5;" x1="16.16" x2="52.16" y1="28.2969" y2="28.2969"/><text fill="#000000" font-family="sans-serif" font-size="14" font-weight="bold" lengthAdjust="spacing" textLength="23" x="20.16" y="20.9951">src</text><!--MD5=[793a32dc470ae4c150017d1194553bf7]
cluster helpers_e79980dd--><polygon fill="#FFFFFF" filter="url(#f1dzsy1w7uiyd7)" points="53.16,485,119.16,485,126.16,507.2969,856.16,507.2969,856.16,781,53.16,781,53.16,485" style="stroke:#000000;stroke-width:1.5;"/><line style="stroke:#000000;stroke-width:1.5;" x1="53.16" x2="126.16" y1="507.2969" y2="507.2969"/><text fill="#000000" font-family="sans-serif" font-size="14" font-weight="bold" lengthAdjust="spacing" textLength="60" x="57.16" y="499.9951">helpers</text><!--MD5=[f21b0ea59e6c135a2c09faf68ef9548c]
cluster session_strategy_8743c280--><polygon fill="#FFFFFF" filter="url(#f1dzsy1w7uiyd7)" points="40.16,49,178.16,49,185.16,71.2969,815.16,71.2969,815.16,461,40.16,461,40.16,49" style="stroke:#000000;stroke-width:1.5;"/><line style="stroke:#000000;stroke-width:1.5;" x1="40.16" x2="185.16" y1="71.2969" y2="71.2969"/><text fill="#000000" font-family="sans-serif" font-size="14" font-weight="bold" lengthAdjust="spacing" textLength="132" x="44.16" y="63.9951">session-strategy</text><!--MD5=[edb80642149639f5deec06debb645aa8]
class node_session_util_cf9cb43b--><rect codeLine="2" fill="#FEFECE" filter="url(#f1dzsy1w7uiyd7)" height="99.2915" id="node_session_util_cf9cb43b" style="stroke:#A80036;stroke-width:1.5;" width="384" x="831.16" y="307.5"/><ellipse cx="970.91" cy="323.5" fill="#ADD1B2" rx="11" ry="11" style="stroke:#A80036;stroke-width:1.0;"/><path d="M973.3944,329.375 Q972.8163,329.6875 972.1756,329.8438 Q971.535,330 970.8319,330 Q968.3163,330 966.9881,328.3281 Q965.6756,326.6563 965.6756,323.5 Q965.6756,320.3438 966.9881,318.6719 Q968.3163,317 970.8319,317 Q971.535,317 972.1756,317.1563 Q972.8319,317.3125 973.3944,317.625 L973.3944,320.4219 Q972.7538,319.8438 972.16,319.5781 Q971.5663,319.3125 970.9413,319.3125 Q969.5975,319.3125 968.91,320.375 Q968.2225,321.4219 968.2225,323.5 Q968.2225,325.5781 968.91,326.6406 Q969.5975,327.6875 970.9413,327.6875 Q971.5663,327.6875 972.16,327.4219 Q972.7538,327.1563 973.3944,326.5781 L973.3944,329.375 Z " fill="#000000"/><text fill="#000000" font-family="sans-serif" font-size="12" lengthAdjust="spacing" textLength="96" x="991.41" y="327.6543">NodeSessionUtil</text><line style="stroke:#A80036;stroke-width:1.5;" x1="832.16" x2="1214.16" y1="339.5" y2="339.5"/><polygon fill="none" points="842.16,345.5,846.16,349.5,842.16,353.5,838.16,349.5" style="stroke:#B38D22;stroke-width:1.0;"/><text fill="#000000" font-family="sans-serif" font-size="11" lengthAdjust="spacing" textLength="152" x="851.16" y="353.725">_strategy: SessionStrategy</text><line style="stroke:#A80036;stroke-width:1.5;" x1="832.16" x2="1214.16" y1="360.3229" y2="360.3229"/><ellipse cx="842.16" cy="371.3229" fill="#84BE84" rx="3" ry="3" style="stroke:#038048;stroke-width:1.0;"/><text fill="#000000" font-family="sans-serif" font-size="11" lengthAdjust="spacing" textLength="335" x="851.16" y="374.5478">constructor(props?: { sessionStrategy?: SessionStrategy })</text><ellipse cx="842.16" cy="384.1458" fill="#84BE84" rx="3" ry="3" style="stroke:#038048;stroke-width:1.0;"/><text fill="#000000" font-family="sans-serif" font-size="11" lengthAdjust="spacing" textLength="358" x="851.16" y="387.3707">createAsyncSession(callback: () =&gt; Promise&lt;T&gt;): Promise&lt;T&gt;</text><ellipse cx="842.16" cy="396.9686" fill="#84BE84" rx="3" ry="3" style="stroke:#038048;stroke-width:1.0;"/><text fill="#000000" font-family="sans-serif" font-size="11" lengthAdjust="spacing" textLength="230" x="851.16" y="400.1936">createSession(callback: () =&gt; void): void</text><!--MD5=[598fbbc2ec08807931a50a023c090a75]
class express_cls_hooks_helper_83712446--><rect codeLine="9" fill="#FEFECE" filter="url(#f1dzsy1w7uiyd7)" height="150.583" id="express_cls_hooks_helper_83712446" style="stroke:#A80036;stroke-width:1.5;" width="375" x="69.66" y="520"/><ellipse cx="183.41" cy="536" fill="#ADD1B2" rx="11" ry="11" style="stroke:#A80036;stroke-width:1.0;"/><path d="M185.8944,541.875 Q185.3163,542.1875 184.6756,542.3438 Q184.035,542.5 183.3319,542.5 Q180.8163,542.5 179.4881,540.8281 Q178.1756,539.1563 178.1756,536 Q178.1756,532.8438 179.4881,531.1719 Q180.8163,529.5 183.3319,529.5 Q184.035,529.5 184.6756,529.6563 Q185.3319,529.8125 185.8944,530.125 L185.8944,532.9219 Q185.2538,532.3438 184.66,532.0781 Q184.0663,531.8125 183.4413,531.8125 Q182.0975,531.8125 181.41,532.875 Q180.7225,533.9219 180.7225,536 Q180.7225,538.0781 181.41,539.1406 Q182.0975,540.1875 183.4413,540.1875 Q184.0663,540.1875 184.66,539.9219 Q185.2538,539.6563 185.8944,539.0781 L185.8944,541.875 Z " fill="#000000"/><text fill="#000000" font-family="sans-serif" font-size="12" lengthAdjust="spacing" textLength="139" x="203.91" y="540.1543">ExpressClsHooksHelper</text><line style="stroke:#A80036;stroke-width:1.5;" x1="70.66" x2="443.66" y1="552" y2="552"/><polygon fill="none" points="80.66,558,84.66,562,80.66,566,76.66,562" style="stroke:#B38D22;stroke-width:1.0;"/><text fill="#000000" font-family="sans-serif" font-size="11" lengthAdjust="spacing" textLength="210" x="89.66" y="566.225">_clsHooksStrategy: ClsHooksStrategy</text><line style="stroke:#A80036;stroke-width:1.5;" x1="70.66" x2="443.66" y1="572.8229" y2="572.8229"/><ellipse cx="80.66" cy="583.8229" fill="#84BE84" rx="3" ry="3" style="stroke:#038048;stroke-width:1.0;"/><text fill="#000000" font-family="sans-serif" font-size="11" lengthAdjust="spacing" textLength="349" x="89.66" y="587.0478">constructor(params: { clsHooksStrategy: ClsHooksStrategy })</text><ellipse cx="80.66" cy="596.6458" fill="#84BE84" rx="3" ry="3" style="stroke:#038048;stroke-width:1.0;"/><text fill="#000000" font-family="sans-serif" font-size="11" lengthAdjust="spacing" textLength="197" x="89.66" y="599.8707">expressMiddleware(_req: Request,</text><text fill="#000000" font-family="sans-serif" font-size="11" lengthAdjust="spacing" textLength="91" x="93.66" y="612.6936">_res: Response,</text><text fill="#000000" font-family="sans-serif" font-size="11" lengthAdjust="spacing" textLength="142" x="93.66" y="625.5165">next: NextFunction): void</text><ellipse cx="80.66" cy="635.1144" fill="#84BE84" rx="3" ry="3" style="stroke:#038048;stroke-width:1.0;"/><text fill="#000000" font-family="sans-serif" font-size="11" lengthAdjust="spacing" textLength="257" x="89.66" y="638.3393">expressMiddlewareBindEmitter(req: Request,</text><text fill="#000000" font-family="sans-serif" font-size="11" lengthAdjust="spacing" textLength="85" x="93.66" y="651.1622">res: Response,</text><text fill="#000000" font-family="sans-serif" font-size="11" lengthAdjust="spacing" textLength="142" x="93.66" y="663.9851">next: NextFunction): void</text><rect fill="#FEFECE" filter="url(#f1dzsy1w7uiyd7)" height="33.9688" style="stroke:#A80036;stroke-width:1.5;" width="197" x="114.66" y="731"/><text fill="#000000" font-family="sans-serif" font-size="12" lengthAdjust="spacing" textLength="183" x="121.66" y="744.1387">clsHooksExpressHelperFactory</text><line style="stroke:#A80036;stroke-width:1.5;" x1="115.66" x2="310.66" y1="748.9688" y2="748.9688"/><!--MD5=[57777c18d9e69537571fb6b81a03ca42]
class fastify_helper_438f46--><rect codeLine="17" fill="#FEFECE" filter="url(#f1dzsy1w7uiyd7)" height="137.7601" id="fastify_helper_438f46" style="stroke:#A80036;stroke-width:1.5;" width="360" x="480.16" y="526.5"/><ellipse cx="616.91" cy="542.5" fill="#ADD1B2" rx="11" ry="11" style="stroke:#A80036;stroke-width:1.0;"/><path d="M619.3944,548.375 Q618.8163,548.6875 618.1756,548.8438 Q617.535,549 616.8319,549 Q614.3163,549 612.9881,547.3281 Q611.6756,545.6563 611.6756,542.5 Q611.6756,539.3438 612.9881,537.6719 Q614.3163,536 616.8319,536 Q617.535,536 618.1756,536.1563 Q618.8319,536.3125 619.3944,536.625 L619.3944,539.4219 Q618.7538,538.8438 618.16,538.5781 Q617.5663,538.3125 616.9413,538.3125 Q615.5975,538.3125 614.91,539.375 Q614.2225,540.4219 614.2225,542.5 Q614.2225,544.5781 614.91,545.6406 Q615.5975,546.6875 616.9413,546.6875 Q617.5663,546.6875 618.16,546.4219 Q618.7538,546.1563 619.3944,545.5781 L619.3944,548.375 Z " fill="#000000"/><text fill="#000000" font-family="sans-serif" font-size="12" lengthAdjust="spacing" textLength="78" x="637.41" y="546.6543">FastifyHelper</text><line style="stroke:#A80036;stroke-width:1.5;" x1="481.16" x2="839.16" y1="558.5" y2="558.5"/><polygon fill="none" points="491.16,564.5,495.16,568.5,491.16,572.5,487.16,568.5" style="stroke:#B38D22;stroke-width:1.0;"/><text fill="#000000" font-family="sans-serif" font-size="11" lengthAdjust="spacing" textLength="195" x="500.16" y="572.725">_sessionStrategy: SessionStrategy</text><ellipse cx="491.16" cy="582.3229" rx="3" ry="3" style="stroke:#038048;stroke-width:1.0;fill:none;"/><text fill="#000000" font-family="sans-serif" font-size="11" lengthAdjust="spacing" textLength="240" x="500.16" y="585.5478">beecodeSessionContextPluginFactory: any</text><ellipse cx="491.16" cy="595.1458" rx="3" ry="3" style="stroke:#038048;stroke-width:1.0;fill:none;"/><text fill="#000000" font-family="sans-serif" font-size="11" lengthAdjust="spacing" textLength="61" x="500.16" y="598.3707">validHooks</text><line style="stroke:#A80036;stroke-width:1.5;" x1="481.16" x2="839.16" y1="604.9686" y2="604.9686"/><polygon fill="#FFFF44" points="491.16,610.9686,495.16,614.9686,491.16,618.9686,487.16,614.9686" style="stroke:#B38D22;stroke-width:1.0;"/><text fill="#000000" font-family="sans-serif" font-size="11" lengthAdjust="spacing" textLength="112" x="500.16" y="619.1936">_plugin(fastify: any,</text><text fill="#000000" font-family="sans-serif" font-size="11" lengthAdjust="spacing" textLength="57" x="504.16" y="632.0165">opts: any,</text><text fill="#000000" font-family="sans-serif" font-size="11" lengthAdjust="spacing" textLength="127" x="504.16" y="644.8393">next: () =&gt; void): void</text><ellipse cx="491.16" cy="654.4373" fill="#84BE84" rx="3" ry="3" style="stroke:#038048;stroke-width:1.0;"/><text fill="#000000" font-family="sans-serif" font-size="11" lengthAdjust="spacing" textLength="334" x="500.16" y="657.6622">constructor(params: { sessionStrategy: SessionStrategy })</text><rect fill="#FEFECE" filter="url(#f1dzsy1w7uiyd7)" height="33.9688" style="stroke:#A80036;stroke-width:1.5;" width="134" x="649.16" y="731"/><text fill="#000000" font-family="sans-serif" font-size="12" lengthAdjust="spacing" textLength="120" x="656.16" y="744.1387">fastifyHelperFactory</text><line style="stroke:#A80036;stroke-width:1.5;" x1="650.16" x2="782.16" y1="748.9688" y2="748.9688"/><rect fill="#FEFECE" filter="url(#f1dzsy1w7uiyd7)" height="33.9688" style="stroke:#A80036;stroke-width:1.5;" width="146" x="56.16" y="129.5"/><text fill="#000000" font-family="sans-serif" font-size="12" lengthAdjust="spacing" textLength="132" x="63.16" y="142.6387">_defaultNameSpaceId</text><line style="stroke:#A80036;stroke-width:1.5;" x1="57.16" x2="201.16" y1="147.4688" y2="147.4688"/><!--MD5=[7b94bb0acc9a24a804b7cda9d4be2360]
class cls_hooks_strategy_621aeab1--><rect codeLine="30" fill="#FEFECE" filter="url(#f1dzsy1w7uiyd7)" height="176.2288" id="cls_hooks_strategy_621aeab1" style="stroke:#A80036;stroke-width:1.5;" width="299" x="83.66" y="269"/><ellipse cx="176.41" cy="285" fill="#ADD1B2" rx="11" ry="11" style="stroke:#A80036;stroke-width:1.0;"/><path d="M178.8944,290.875 Q178.3163,291.1875 177.6756,291.3438 Q177.035,291.5 176.3319,291.5 Q173.8163,291.5 172.4881,289.8281 Q171.1756,288.1563 171.1756,285 Q171.1756,281.8438 172.4881,280.1719 Q173.8163,278.5 176.3319,278.5 Q177.035,278.5 177.6756,278.6563 Q178.3319,278.8125 178.8944,279.125 L178.8944,281.9219 Q178.2538,281.3438 177.66,281.0781 Q177.0663,280.8125 176.4413,280.8125 Q175.0975,280.8125 174.41,281.875 Q173.7225,282.9219 173.7225,285 Q173.7225,287.0781 174.41,288.1406 Q175.0975,289.1875 176.4413,289.1875 Q177.0663,289.1875 177.66,288.9219 Q178.2538,288.6563 178.8944,288.0781 L178.8944,290.875 Z " fill="#000000"/><text fill="#000000" font-family="sans-serif" font-size="12" lengthAdjust="spacing" textLength="105" x="196.91" y="289.1543">ClsHooksStrategy</text><line style="stroke:#A80036;stroke-width:1.5;" x1="84.66" x2="381.66" y1="301" y2="301"/><ellipse cx="94.66" cy="312" rx="3" ry="3" style="stroke:#038048;stroke-width:1.0;fill:none;"/><text fill="#000000" font-family="sans-serif" font-size="11" lengthAdjust="spacing" textLength="89" x="103.66" y="315.225">NS: Namespace</text><polygon fill="none" points="94.66,319.8229,98.66,323.8229,94.66,327.8229,90.66,323.8229" style="stroke:#B38D22;stroke-width:1.0;"/><text fill="#000000" font-family="sans-serif" font-size="11" lengthAdjust="spacing" textLength="93" x="103.66" y="328.0478">_ns: Namespace</text><polygon fill="none" points="94.66,332.6458,98.66,336.6458,94.66,340.6458,90.66,336.6458" style="stroke:#B38D22;stroke-width:1.0;"/><text fill="#000000" font-family="sans-serif" font-size="11" lengthAdjust="spacing" textLength="194" x="103.66" y="340.8707">_throwErrorIfInactiveContext: void</text><line style="stroke:#A80036;stroke-width:1.5;" x1="84.66" x2="381.66" y1="347.4686" y2="347.4686"/><ellipse cx="94.66" cy="358.4686" fill="#84BE84" rx="3" ry="3" style="stroke:#038048;stroke-width:1.0;"/><text fill="#000000" font-family="sans-serif" font-size="11" lengthAdjust="spacing" textLength="128" x="103.66" y="361.6936">clear(key: string): void</text><ellipse cx="94.66" cy="371.2915" fill="#84BE84" rx="3" ry="3" style="stroke:#038048;stroke-width:1.0;"/><text fill="#000000" font-family="sans-serif" font-size="11" lengthAdjust="spacing" textLength="273" x="103.66" y="374.5165">constructor(params?: { nameSpaceId?: string })</text><ellipse cx="94.66" cy="384.1144" fill="#84BE84" rx="3" ry="3" style="stroke:#038048;stroke-width:1.0;"/><text fill="#000000" font-family="sans-serif" font-size="11" lengthAdjust="spacing" textLength="198" x="103.66" y="387.3393">createSession(callback: () =&gt; void,</text><text fill="#000000" font-family="sans-serif" font-size="11" lengthAdjust="spacing" textLength="215" x="107.66" y="400.1622">options?: CreateSessionOptions): void</text><ellipse cx="94.66" cy="409.7601" fill="#84BE84" rx="3" ry="3" style="stroke:#038048;stroke-width:1.0;"/><text fill="#000000" font-family="sans-serif" font-size="11" lengthAdjust="spacing" textLength="169" x="103.66" y="412.9851">get(key: string): T | undefined</text><ellipse cx="94.66" cy="422.583" fill="#84BE84" rx="3" ry="3" style="stroke:#038048;stroke-width:1.0;"/><text fill="#000000" font-family="sans-serif" font-size="11" lengthAdjust="spacing" textLength="85" x="103.66" y="425.808">set(key: string,</text><text fill="#000000" font-family="sans-serif" font-size="11" lengthAdjust="spacing" textLength="82" x="107.66" y="438.6308">value: T): void</text><!--MD5=[b50ccdcac82eea20c918373d0179b4bb]
class fast_als_strategy_82c98943--><rect codeLine="40" fill="#FEFECE" filter="url(#f1dzsy1w7uiyd7)" height="124.9373" id="fast_als_strategy_82c98943" style="stroke:#A80036;stroke-width:1.5;" width="245" x="417.66" y="294.5"/><ellipse cx="488.91" cy="310.5" fill="#ADD1B2" rx="11" ry="11" style="stroke:#A80036;stroke-width:1.0;"/><path d="M491.3944,316.375 Q490.8163,316.6875 490.1756,316.8438 Q489.535,317 488.8319,317 Q486.3163,317 484.9881,315.3281 Q483.6756,313.6563 483.6756,310.5 Q483.6756,307.3438 484.9881,305.6719 Q486.3163,304 488.8319,304 Q489.535,304 490.1756,304.1563 Q490.8319,304.3125 491.3944,304.625 L491.3944,307.4219 Q490.7538,306.8438 490.16,306.5781 Q489.5663,306.3125 488.9413,306.3125 Q487.5975,306.3125 486.91,307.375 Q486.2225,308.4219 486.2225,310.5 Q486.2225,312.5781 486.91,313.6406 Q487.5975,314.6875 488.9413,314.6875 Q489.5663,314.6875 490.16,314.4219 Q490.7538,314.1563 491.3944,313.5781 L491.3944,316.375 Z " fill="#000000"/><text fill="#000000" font-family="sans-serif" font-size="12" lengthAdjust="spacing" textLength="94" x="509.41" y="314.6543">FastAlsStrategy</text><line style="stroke:#A80036;stroke-width:1.5;" x1="418.66" x2="661.66" y1="326.5" y2="326.5"/><line style="stroke:#A80036;stroke-width:1.5;" x1="418.66" x2="661.66" y1="334.5" y2="334.5"/><ellipse cx="428.66" cy="345.5" fill="#84BE84" rx="3" ry="3" style="stroke:#038048;stroke-width:1.0;"/><text fill="#000000" font-family="sans-serif" font-size="11" lengthAdjust="spacing" textLength="128" x="437.66" y="348.725">clear(key: string): void</text><ellipse cx="428.66" cy="358.3229" fill="#84BE84" rx="3" ry="3" style="stroke:#038048;stroke-width:1.0;"/><text fill="#000000" font-family="sans-serif" font-size="11" lengthAdjust="spacing" textLength="198" x="437.66" y="361.5478">createSession(callback: () =&gt; void,</text><text fill="#000000" font-family="sans-serif" font-size="11" lengthAdjust="spacing" textLength="215" x="441.66" y="374.3707">options?: CreateSessionOptions): void</text><ellipse cx="428.66" cy="383.9686" fill="#84BE84" rx="3" ry="3" style="stroke:#038048;stroke-width:1.0;"/><text fill="#000000" font-family="sans-serif" font-size="11" lengthAdjust="spacing" textLength="169" x="437.66" y="387.1936">get(key: string): T | undefined</text><ellipse cx="428.66" cy="396.7915" fill="#84BE84" rx="3" ry="3" style="stroke:#038048;stroke-width:1.0;"/><text fill="#000000" font-family="sans-serif" font-size="11" lengthAdjust="spacing" textLength="85" x="437.66" y="400.0165">set(key: string,</text><text fill="#000000" font-family="sans-serif" font-size="11" lengthAdjust="spacing" textLength="82" x="441.66" y="412.8393">value: T): void</text><!--MD5=[60ac9b7880ecf2aedc43eeb64ee466b5]
entity create_session_options_87f89bce--><rect fill="#FEFECE" filter="url(#f1dzsy1w7uiyd7)" height="46.5938" style="stroke:#000000;stroke-width:1.5;" width="281" x="237.66" y="123"/><text fill="#000000" font-family="sans-serif" font-size="14" lengthAdjust="spacing" textLength="156" x="247.66" y="138.9951">CreateSessionOptions</text><line style="stroke:#000000;stroke-width:1.0;" x1="238.66" x2="517.66" y1="142.2969" y2="142.2969"/><text fill="#000000" font-family="sans-serif" font-size="14" lengthAdjust="spacing" textLength="261" x="247.66" y="159.292">{ defaultValue?: { [k: string]: any } }</text><!--MD5=[0ceeffcea456ef212399300707abf1b1]
class session_strategy_87f89bce--><rect codeLine="51" fill="#FEFECE" filter="url(#f1dzsy1w7uiyd7)" height="124.9373" id="session_strategy_87f89bce" style="stroke:#A80036;stroke-width:1.5;" width="245" x="553.66" y="84"/><ellipse cx="623.41" cy="100" fill="#B4A7E5" rx="11" ry="11" style="stroke:#A80036;stroke-width:1.0;"/><path d="M619.8319,95.7656 L619.8319,93.5 L627.2225,93.5 L627.2225,95.7656 L624.7538,95.7656 L624.7538,104.2344 L627.2225,104.2344 L627.2225,106.5 L619.8319,106.5 L619.8319,104.2344 L622.3006,104.2344 L622.3006,95.7656 L619.8319,95.7656 Z " fill="#000000"/><text fill="#000000" font-family="sans-serif" font-size="12" font-style="italic" lengthAdjust="spacing" textLength="97" x="643.91" y="104.1543">SessionStrategy</text><line style="stroke:#A80036;stroke-width:1.5;" x1="554.66" x2="797.66" y1="116" y2="116"/><line style="stroke:#A80036;stroke-width:1.5;" x1="554.66" x2="797.66" y1="124" y2="124"/><ellipse cx="564.66" cy="135" fill="#84BE84" rx="3" ry="3" style="stroke:#038048;stroke-width:1.0;"/><text fill="#000000" font-family="sans-serif" font-size="11" lengthAdjust="spacing" textLength="169" x="573.66" y="138.225">get(key: string): T | undefined</text><ellipse cx="564.66" cy="147.8229" fill="#84BE84" rx="3" ry="3" style="stroke:#038048;stroke-width:1.0;"/><text fill="#000000" font-family="sans-serif" font-size="11" lengthAdjust="spacing" textLength="85" x="573.66" y="151.0478">set(key: string,</text><text fill="#000000" font-family="sans-serif" font-size="11" lengthAdjust="spacing" textLength="82" x="577.66" y="163.8707">value: T): void</text><ellipse cx="564.66" cy="173.4686" fill="#84BE84" rx="3" ry="3" style="stroke:#038048;stroke-width:1.0;"/><text fill="#000000" font-family="sans-serif" font-size="11" lengthAdjust="spacing" textLength="128" x="573.66" y="176.6936">clear(key: string): void</text><ellipse cx="564.66" cy="186.2915" fill="#84BE84" rx="3" ry="3" style="stroke:#038048;stroke-width:1.0;"/><text fill="#000000" font-family="sans-serif" font-size="11" lengthAdjust="spacing" textLength="198" x="573.66" y="189.5165">createSession(callback: () =&gt; void,</text><text fill="#000000" font-family="sans-serif" font-size="11" lengthAdjust="spacing" textLength="215" x="577.66" y="202.3393">options?: CreateSessionOptions): void</text><!--MD5=[ba094aa375c6e50df369a1e748154f73]
reverse link cls_hooks_strategy_621aeab1 to express_cls_hooks_helper_83712446--><path codeLine="59" d="M242.52,450.25 C244.86,473.26 247.33,497.64 249.57,519.69 " fill="none" id="cls_hooks_strategy_621aeab1-backto-express_cls_hooks_helper_83712446" style="stroke:#A80036;stroke-width:1.0;"/><polygon fill="#A80036" points="241.99,445.06,238.9373,454.4238,242.5045,450.0335,246.8949,453.6006,241.99,445.06" style="stroke:#A80036;stroke-width:1.0;"/><!--MD5=[87ecfbb81e0049c9f3e37855462fc617]
reverse link cls_hooks_strategy_621aeab1 to cls_hooks_express_helper_factory_83712446--><path codeLine="60" d="M79.63,440.57 C68.83,451.49 59.38,463.62 52.16,477 C11.23,552.89 6,598.17 52.16,671 C71.44,701.42 106.51,719.89 139.01,730.99 " fill="none" id="cls_hooks_strategy_621aeab1-backto-cls_hooks_express_helper_factory_83712446" style="stroke:#A80036;stroke-width:1.0;"/><polygon fill="#A80036" points="83.34,436.91,74.1264,440.3898,79.7831,440.424,79.7488,446.0808,83.34,436.91" style="stroke:#A80036;stroke-width:1.0;"/><!--MD5=[4950cd145dc6a1c67671539898c1bc87]
reverse link express_cls_hooks_helper_83712446 to cls_hooks_express_helper_factory_83712446--><path codeLine="61" d="M233.83,676.3 C227.77,697.03 221.84,717.3 217.9,730.78 " fill="none" id="express_cls_hooks_helper_83712446-backto-cls_hooks_express_helper_factory_83712446" style="stroke:#A80036;stroke-width:1.0;"/><polygon fill="#A80036" points="235.29,671.31,228.93,678.83,233.89,676.11,236.61,681.07,235.29,671.31" style="stroke:#A80036;stroke-width:1.0;"/><!--MD5=[cf6afe86488c039c8da58cc0e2963e34]
reverse link session_strategy_87f89bce to fastify_helper_438f46--><path codeLine="62" d="M680.54,214.26 C683.97,279.37 687.12,381.14 680.16,469 C678.68,487.7 675.98,507.81 673.03,526.34 " fill="none" id="session_strategy_87f89bce-backto-fastify_helper_438f46" style="stroke:#A80036;stroke-width:1.0;"/><polygon fill="#A80036" points="680.27,209.24,676.7652,218.4441,680.5418,214.2326,684.7533,218.0092,680.27,209.24" style="stroke:#A80036;stroke-width:1.0;"/><!--MD5=[af9675eee1d7cc0cdc9cf365050ab171]
reverse link session_strategy_87f89bce to fastify_helper_factory_438f46--><path codeLine="63" d="M682.31,214.57 C692.94,289.07 721.85,406.97 800.16,469 C820.56,485.16 841.06,457.38 858.16,477 C914.81,542 902.47,597.03 858.16,671 C840.34,700.74 806.47,719.5 776.28,730.94 " fill="none" id="session_strategy_87f89bce-backto-fastify_helper_factory_438f46" style="stroke:#A80036;stroke-width:1.0;"/><polygon fill="#A80036" points="681.57,209.29,678.8447,218.7543,682.2571,214.2426,686.7688,217.655,681.57,209.29" style="stroke:#A80036;stroke-width:1.0;"/><!--MD5=[2d19fbcc20f71b7a3bb526c588221bd6]
reverse link fastify_helper_438f46 to fastify_helper_factory_438f46--><path codeLine="64" d="M687.36,669.61 C695.93,692.64 704.6,715.93 710.15,730.86 " fill="none" id="fastify_helper_438f46-backto-fastify_helper_factory_438f46" style="stroke:#A80036;stroke-width:1.0;"/><polygon fill="#A80036" points="685.54,664.7,684.9285,674.5299,687.2831,669.3863,692.4266,671.7409,685.54,664.7" style="stroke:#A80036;stroke-width:1.0;"/><!--MD5=[3e98e9fad82a6a53da8e7c28fe0ce722]
reverse link session_strategy_87f89bce to node_session_util_cf9cb43b--><path codeLine="65" d="M783.16,211.8 C834.43,242.6 894.82,278.88 942.2,307.35 " fill="none" id="session_strategy_87f89bce-backto-node_session_util_cf9cb43b" style="stroke:#A80036;stroke-width:1.0;"/><polygon fill="#A80036" points="778.86,209.21,784.5195,217.2704,783.1475,211.7825,788.6354,210.4105,778.86,209.21" style="stroke:#A80036;stroke-width:1.0;"/><!--MD5=[39cae15ecab7711f9befe1554052f2c5]
reverse link create_session_options_87f89bce to cls_hooks_strategy_621aeab1--><path codeLine="66" d="M359.36,174.54 C342.7,198.49 317.43,234.82 293.87,268.7 " fill="none" id="create_session_options_87f89bce-backto-cls_hooks_strategy_621aeab1" style="stroke:#A80036;stroke-width:1.0;"/><polygon fill="#A80036" points="362.37,170.21,353.963,175.3405,359.5277,174.3235,360.5446,179.8882,362.37,170.21" style="stroke:#A80036;stroke-width:1.0;"/><!--MD5=[289c85e2c3f4bf0de22606a548ccdb6e]
reverse link session_strategy_87f89bce to cls_hooks_strategy_621aeab1--><path codeLine="67" d="M534.74,209.64 C468.78,238.64 403.82,267.24 400.16,269 C394.41,271.76 388.57,274.6 382.69,277.5 " fill="none" id="session_strategy_87f89bce-backto-cls_hooks_strategy_621aeab1" style="stroke:#A80036;stroke-width:1.0;stroke-dasharray:7.0,7.0;"/><polygon fill="none" points="532.2,203.11,553.33,201.47,537.84,215.92,532.2,203.11" style="stroke:#A80036;stroke-width:1.0;"/><!--MD5=[1a15e0ec56904fffe9d51e6fc6b59b51]
reverse link create_session_options_87f89bce to fast_als_strategy_82c98943--><path codeLine="68" d="M399.15,174.52 C422.59,204.69 461.31,254.51 492.25,294.33 " fill="none" id="create_session_options_87f89bce-backto-fast_als_strategy_82c98943" style="stroke:#A80036;stroke-width:1.0;"/><polygon fill="#A80036" points="395.81,170.21,398.1852,179.7681,398.8827,174.1545,404.4964,174.8519,395.81,170.21" style="stroke:#A80036;stroke-width:1.0;"/><!--MD5=[38ca0f4e381cfdda7e4be579efda96e1]
reverse link session_strategy_87f89bce to fast_als_strategy_82c98943--><path codeLine="69" d="M624.9,226.09 C610.15,248.7 594.28,273.03 580.31,294.45 " fill="none" id="session_strategy_87f89bce-backto-fast_als_strategy_82c98943" style="stroke:#A80036;stroke-width:1.0;stroke-dasharray:7.0,7.0;"/><polygon fill="none" points="619.12,222.14,635.91,209.21,630.84,229.79,619.12,222.14" style="stroke:#A80036;stroke-width:1.0;"/><!--MD5=[1d5adf182868556adf23e34d7f3ef20e]
@startuml
    folder "src" as src_b874d07 {
      class "NodeSessionUtil" as node_session_util_cf9cb43b {
        # _strategy: SessionStrategy
        + constructor(props?: { sessionStrategy?: SessionStrategy })
        + createAsyncSession(callback: () => Promise<T>): Promise<T>
        + createSession(callback: () => void): void
      }
      folder "helpers" as helpers_e79980dd {
        class "ExpressClsHooksHelper" as express_cls_hooks_helper_83712446 {
          # _clsHooksStrategy: ClsHooksStrategy
          + constructor(params: { clsHooksStrategy: ClsHooksStrategy })
          + expressMiddleware(_req: Request,\n _res: Response,\n next: NextFunction): void
          + expressMiddlewareBindEmitter(req: Request,\n res: Response,\n next: NextFunction): void
        }
        object "clsHooksExpressHelperFactory" as cls_hooks_express_helper_factory_83712446 {
        }
        class "FastifyHelper" as fastify_helper_438f46 {
          # _plugin(fastify: any,\n opts: any,\n next: () => void): void
          # _sessionStrategy: SessionStrategy
          + beecodeSessionContextPluginFactory: any
          + constructor(params: { sessionStrategy: SessionStrategy })
          + validHooks
        }
        object "fastifyHelperFactory" as fastify_helper_factory_438f46 {
        }
      }
      folder "session-strategy" as session_strategy_8743c280 {
        object "_defaultNameSpaceId" as default_name_space_id_621aeab1 {
        }
        class "ClsHooksStrategy" as cls_hooks_strategy_621aeab1 {
          + NS: Namespace
          # _ns: Namespace
          # _throwErrorIfInactiveContext: void
          + clear(key: string): void
          + constructor(params?: { nameSpaceId?: string })
          + createSession(callback: () => void,\n options?: CreateSessionOptions): void
          + get(key: string): T | undefined
          + set(key: string,\n value: T): void
        }
        class "FastAlsStrategy" as fast_als_strategy_82c98943 {
          + clear(key: string): void
          + createSession(callback: () => void,\n options?: CreateSessionOptions): void
          + get(key: string): T | undefined
          + set(key: string,\n value: T): void
        }
        card create_session_options_87f89bce [
          CreateSessionOptions
          - - -
          { defaultValue?: { [k: string]: any } }
        ]
        interface "SessionStrategy" as session_strategy_87f89bce {
          + get(key: string): T | undefined
          + set(key: string,\n value: T): void
          + clear(key: string): void
          + createSession(callback: () => void,\n options?: CreateSessionOptions): void
        }
      }
    }
  express_cls_hooks_helper_83712446 -up-> cls_hooks_strategy_621aeab1
  cls_hooks_express_helper_factory_83712446 -up-> cls_hooks_strategy_621aeab1
  cls_hooks_express_helper_factory_83712446 -up-> express_cls_hooks_helper_83712446
  fastify_helper_438f46 -up-> session_strategy_87f89bce
  fastify_helper_factory_438f46 -up-> session_strategy_87f89bce
  fastify_helper_factory_438f46 -up-> fastify_helper_438f46
  node_session_util_cf9cb43b -up-> session_strategy_87f89bce
  cls_hooks_strategy_621aeab1 -up-> create_session_options_87f89bce
  cls_hooks_strategy_621aeab1 .up.|> session_strategy_87f89bce
  fast_als_strategy_82c98943 -up-> create_session_options_87f89bce
  fast_als_strategy_82c98943 .up.|> session_strategy_87f89bce
@enduml

PlantUML version 1.2021.16(Wed Dec 08 18:25:22 CET 2021)
(GPL source distribution)
Java Runtime: OpenJDK Runtime Environment
JVM: OpenJDK 64-Bit Server VM
Default Encoding: UTF-8
Language: en
Country: US
--></g></svg>